<svg width="19" height="13" viewBox="0 0 19 13" fill="none" xmlns="http://www.w3.org/2000/svg">
<path d="M18.7489 10.1235L17.025 6.93697C16.8803 6.66875 16.6816 6.4322 16.4424 6.24337C16.2032 6.05453 15.9291 5.91783 15.6387 5.84254L3.07862 2.38687L1.50572 0.34588C1.41458 0.229854 1.29102 0.143833 1.1525 0.0999645C1.01398 0.0560957 0.867486 0.0565954 0.733711 0.101393C0.599935 0.146191 0.485634 0.233024 0.406948 0.34963C0.328262 0.466236 0.289166 0.606724 0.295181 0.751257L0.459648 3.88581C0.461951 3.93776 0.477415 3.98891 0.504559 4.03438C0.531703 4.07984 0.569619 4.1181 0.614678 4.14549C1.27542 4.52503 4.01709 5.70297 7.29973 7.05944L2.98732 11.5016C2.9499 11.54 2.92411 11.5885 2.91273 11.6419C2.90135 11.6953 2.90481 11.7516 2.92274 11.8047C2.94067 11.8577 2.97239 11.9056 3.01448 11.9431C3.05656 11.9805 3.10742 12.0062 3.16156 12.0173L4.91945 12.3808C5.01606 12.4003 5.1147 12.3853 5.19806 12.3382L11.5039 8.7899C13.8623 9.75255 16.1269 10.6616 17.7241 11.2997C17.8874 11.3679 18.0651 11.3848 18.233 11.3481C18.4009 11.3114 18.551 11.2229 18.6628 11.0945C18.7747 10.9662 18.8429 10.8042 18.8583 10.6305C18.8737 10.4568 18.8355 10.2798 18.7489 10.1235Z" fill="#5E5F61"/>
</svg>
