<svg width="24" height="24" viewBox="0 0 24 24" fill="none" xmlns="http://www.w3.org/2000/svg">
<path d="M10.1163 18.6971C10.5013 19.0931 11.1344 19.102 11.5304 18.717C11.9264 18.332 11.9353 17.6989 11.5503 17.3029L10.1163 18.6971ZM5 12L4.28301 11.3029C3.90566 11.691 3.90566 12.309 4.28301 12.6971L5 12ZM11.5503 6.69708C11.9353 6.30109 11.9264 5.66799 11.5304 5.28301C11.1344 4.89802 10.5013 4.90694 10.1163 5.30292L11.5503 6.69708ZM19 13C19.5523 13 20 12.5523 20 12C20 11.4477 19.5523 11 19 11V13ZM11.5503 17.3029L5.71699 11.3029L4.28301 12.6971L10.1163 18.6971L11.5503 17.3029ZM5.71699 12.6971L11.5503 6.69708L10.1163 5.30292L4.28301 11.3029L5.71699 12.6971ZM5 13H19V11H5V13Z" fill="#2261BC"/>
</svg>
