<svg width="17" height="17" viewBox="0 0 17 17" fill="none" xmlns="http://www.w3.org/2000/svg">
<path d="M13.8721 10.1375C13.8721 10.0082 13.8206 9.88421 13.7291 9.79279C13.6375 9.70136 13.5132 9.65 13.3837 9.65H11.4302C11.3007 9.65 11.1765 9.70136 11.0849 9.79279C10.9933 9.88421 10.9419 10.0082 10.9419 10.1375V14.525H9.96512V3.9625C9.96512 3.4893 9.96381 3.1825 9.93386 2.9576C9.90521 2.74635 9.85898 2.68005 9.82186 2.643C9.78474 2.60595 9.71833 2.5598 9.5067 2.5312C9.28074 2.5013 8.97405 2.5 8.5 2.5C8.02595 2.5 7.71861 2.5013 7.4933 2.5312C7.28167 2.5598 7.21526 2.60595 7.17814 2.643C7.14102 2.68005 7.09479 2.74635 7.06614 2.9576C7.03619 3.18315 7.03488 3.4893 7.03488 3.9625V14.525H6.05814V6.8875C6.05814 6.75821 6.00669 6.63421 5.9151 6.54279C5.82351 6.45136 5.69929 6.4 5.56977 6.4H3.61628C3.48675 6.4 3.36254 6.45136 3.27095 6.54279C3.17936 6.63421 3.12791 6.75821 3.12791 6.8875V14.525H1.98837C1.85885 14.525 1.73463 14.5764 1.64304 14.6678C1.55145 14.7592 1.5 14.8832 1.5 15.0125C1.5 15.1418 1.55145 15.2658 1.64304 15.3572C1.73463 15.4486 1.85885 15.5 1.98837 15.5H15.0116C15.1412 15.5 15.2654 15.4486 15.357 15.3572C15.4485 15.2658 15.5 15.1418 15.5 15.0125C15.5 14.8832 15.4485 14.7592 15.357 14.6678C15.2654 14.5764 15.1412 14.525 15.0116 14.525H13.8721V10.1375Z" fill="white"/>
</svg>
