<svg width="17" height="17" viewBox="0 0 17 17" fill="none" xmlns="http://www.w3.org/2000/svg">
<path fill-rule="evenodd" clip-rule="evenodd" d="M7.52105 5.44118C7.37475 6.17955 6.73757 6.73529 5.97368 6.73529C5.2098 6.73529 4.57262 6.17955 4.42632 5.44118H2.81579C2.64138 5.44118 2.5 5.29633 2.5 5.11765C2.5 4.93897 2.64138 4.79412 2.81579 4.79412H4.42632C4.57262 4.05575 5.2098 3.5 5.97368 3.5C6.73757 3.5 7.37475 4.05575 7.52105 4.79412H14.1842C14.3586 4.79412 14.5 4.93897 14.5 5.11765C14.5 5.29633 14.3586 5.44118 14.1842 5.44118H7.52105ZM6.92105 5.11765C6.92105 5.65369 6.4969 6.08824 5.97368 6.08824C5.45047 6.08824 5.02632 5.65369 5.02632 5.11765C5.02632 4.58161 5.45047 4.14706 5.97368 4.14706C6.4969 4.14706 6.92105 4.58161 6.92105 5.11765Z" fill="white"/>
<path fill-rule="evenodd" clip-rule="evenodd" d="M12.5737 9.32353C12.4274 10.0619 11.7902 10.6176 11.0263 10.6176C10.2624 10.6176 9.62525 10.0619 9.47895 9.32353H2.81579C2.64138 9.32353 2.5 9.17868 2.5 9C2.5 8.82132 2.64138 8.67647 2.81579 8.67647H9.47895C9.62525 7.9381 10.2624 7.38235 11.0263 7.38235C11.7902 7.38235 12.4274 7.9381 12.5737 8.67647H14.1842C14.3586 8.67647 14.5 8.82132 14.5 9C14.5 9.17868 14.3586 9.32353 14.1842 9.32353H12.5737ZM11.9737 9C11.9737 9.53604 11.5495 9.97059 11.0263 9.97059C10.5031 9.97059 10.0789 9.53604 10.0789 9C10.0789 8.46396 10.5031 8.02941 11.0263 8.02941C11.5495 8.02941 11.9737 8.46396 11.9737 9Z" fill="white"/>
<path fill-rule="evenodd" clip-rule="evenodd" d="M5.97368 14.5C6.73757 14.5 7.37475 13.9443 7.52105 13.2059H14.1842C14.3586 13.2059 14.5 13.061 14.5 12.8824C14.5 12.7037 14.3586 12.5588 14.1842 12.5588H7.52105C7.37475 11.8205 6.73757 11.2647 5.97368 11.2647C5.2098 11.2647 4.57262 11.8205 4.42632 12.5588H2.81579C2.64138 12.5588 2.5 12.7037 2.5 12.8824C2.5 13.061 2.64138 13.2059 2.81579 13.2059H4.42632C4.57262 13.9443 5.2098 14.5 5.97368 14.5ZM5.97368 13.8529C6.4969 13.8529 6.92105 13.4184 6.92105 12.8824C6.92105 12.3463 6.4969 11.9118 5.97368 11.9118C5.45047 11.9118 5.02632 12.3463 5.02632 12.8824C5.02632 13.4184 5.45047 13.8529 5.97368 13.8529Z" fill="white"/>
</svg>
