<svg width="16" height="17" viewBox="0 0 16 17" fill="none" xmlns="http://www.w3.org/2000/svg">
<path fill-rule="evenodd" clip-rule="evenodd" d="M5.77778 5.72222C5.77778 5.13285 6.0119 4.56762 6.42865 4.15087C6.8454 3.73413 7.41063 3.5 8 3.5C8.58937 3.5 9.1546 3.73413 9.57135 4.15087C9.9881 4.56762 10.2222 5.13285 10.2222 5.72222C10.2222 6.31159 9.9881 6.87682 9.57135 7.29357C9.1546 7.71032 8.58937 7.94444 8 7.94444C7.41063 7.94444 6.8454 7.71032 6.42865 7.29357C6.0119 6.87682 5.77778 6.31159 5.77778 5.72222ZM5.77778 9.05556C5.04107 9.05556 4.33453 9.34821 3.81359 9.86915C3.29266 10.3901 3 11.0966 3 11.8333C3 12.2754 3.17559 12.6993 3.48816 13.0118C3.80072 13.3244 4.22464 13.5 4.66667 13.5H11.3333C11.7754 13.5 12.1993 13.3244 12.5118 13.0118C12.8244 12.6993 13 12.2754 13 11.8333C13 11.0966 12.7073 10.3901 12.1864 9.86915C11.6655 9.34821 10.9589 9.05556 10.2222 9.05556H5.77778Z" fill="white"/>
</svg>
