<svg width="16" height="17" viewBox="0 0 16 17" fill="none" xmlns="http://www.w3.org/2000/svg">
<path fill-rule="evenodd" clip-rule="evenodd" d="M2.48954 8.51762C2.29836 8.51762 2.14338 8.67259 2.14338 8.86377C2.14338 9.05495 2.29836 9.20992 2.48954 9.20992L8.01781 9.20992L8.01781 14.7382C8.01781 14.9294 8.17279 15.0843 8.36396 15.0843C8.55514 15.0843 8.71011 14.9294 8.71011 14.7382L8.71012 9.20992H14.2384C14.4296 9.20992 14.5845 9.05494 14.5845 8.86377C14.5845 8.67259 14.4296 8.51762 14.2384 8.51762H8.71012L8.71011 2.98934C8.71011 2.79817 8.55514 2.64319 8.36396 2.64319C8.17279 2.64319 8.01781 2.79817 8.01781 2.98934L8.01781 8.51762L2.48954 8.51762Z" fill="#DBDBDB"/>
<path d="M2.14338 8.86377L2.64338 8.86377V8.86377L2.14338 8.86377ZM2.48954 8.51762L2.48954 8.01762L2.48954 8.51762ZM2.48954 9.20992L2.48954 9.70992L2.48954 9.70992L2.48954 9.20992ZM8.01781 9.20992H8.51781V8.70992H8.01781V9.20992ZM8.01781 14.7382L8.51781 14.7382L8.51781 14.7382L8.01781 14.7382ZM8.36396 15.0843L8.36396 14.5843L8.36396 15.0843ZM8.71011 14.7382L9.21011 14.7382L9.21012 14.7382L8.71011 14.7382ZM8.71012 9.20992V8.70992H8.21012V9.20992H8.71012ZM8.71012 8.51762H8.21012V9.01762H8.71012V8.51762ZM8.71011 2.98934L9.21012 2.98934L9.21011 2.98934L8.71011 2.98934ZM8.36396 2.64319L8.36396 3.14319L8.36396 2.64319ZM8.01781 2.98934L8.51781 2.98934L8.51781 2.98934L8.01781 2.98934ZM8.01781 8.51762V9.01762L8.51781 9.01762L8.51781 8.51762H8.01781ZM2.64338 8.86377C2.64338 8.94874 2.5745 9.01762 2.48954 9.01762L2.48954 8.01762C2.02222 8.01762 1.64338 8.39645 1.64338 8.86377L2.64338 8.86377ZM2.48954 8.70992C2.5745 8.70992 2.64338 8.7788 2.64338 8.86377L1.64338 8.86377C1.64338 9.33109 2.02222 9.70992 2.48954 9.70992L2.48954 8.70992ZM8.01781 8.70992L2.48954 8.70992L2.48954 9.70992L8.01781 9.70992L8.01781 8.70992ZM8.51781 14.7382L8.51781 9.20992H7.51781L7.51781 14.7382L8.51781 14.7382ZM8.36396 14.5843C8.44893 14.5843 8.51781 14.6532 8.51781 14.7382L7.51781 14.7382C7.51781 15.2055 7.89664 15.5843 8.36396 15.5843L8.36396 14.5843ZM8.21012 14.7382C8.21012 14.6532 8.27899 14.5843 8.36396 14.5843L8.36396 15.5843C8.83128 15.5843 9.21011 15.2055 9.21011 14.7382L8.21012 14.7382ZM8.21012 9.20992L8.21012 14.7382L9.21012 14.7382L9.21012 9.20992H8.21012ZM14.2384 8.70992H8.71012V9.70992H14.2384V8.70992ZM14.0845 8.86377C14.0845 8.7788 14.1534 8.70992 14.2384 8.70992V9.70992C14.7057 9.70992 15.0845 9.33109 15.0845 8.86377H14.0845ZM14.2384 9.01762C14.1534 9.01762 14.0845 8.94874 14.0845 8.86377H15.0845C15.0845 8.39645 14.7057 8.01762 14.2384 8.01762V9.01762ZM8.71012 9.01762H14.2384V8.01762H8.71012V9.01762ZM8.21012 2.98934L8.21012 8.51762H9.21012L9.21012 2.98934L8.21012 2.98934ZM8.36396 3.14319C8.27899 3.14319 8.21012 3.07431 8.21012 2.98934L9.21011 2.98934C9.21011 2.52203 8.83128 2.14319 8.36396 2.14319L8.36396 3.14319ZM8.51781 2.98934C8.51781 3.07431 8.44893 3.14319 8.36396 3.14319L8.36396 2.14319C7.89664 2.14319 7.51781 2.52203 7.51781 2.98934L8.51781 2.98934ZM8.51781 8.51762L8.51781 2.98934L7.51781 2.98934L7.51781 8.51762H8.51781ZM2.48954 9.01762L8.01781 9.01762V8.01762L2.48954 8.01762L2.48954 9.01762Z" fill="#DBDBDB"/>
</svg>
